<?xml version="1.0" encoding="UTF-8" standalone="no"?>
<!DOCTYPE svg PUBLIC "-//W3C//DTD SVG 1.1//EN" "http://www.w3.org/Graphics/SVG/1.1/DTD/svg11.dtd">
<svg xmlns="http://www.w3.org/2000/svg" version="1.1" viewBox="0.00 0.00 285.00 292.00">
<g stroke-width="2.00" fill="none" stroke-linecap="butt">
<path stroke="#b44938" vector-effect="non-scaling-stroke" d="
  M 149.24 43.39
  Q 141.66 46.40 134.67 51.16
  Q 127.98 55.71 121.19 60.13
  Q 117.30 62.65 113.75 65.41
  C 107.75 70.04 101.48 74.19 95.82 79.22
  Q 84.91 88.94 76.17 97.77
  Q 72.12 101.86 66.89 108.41
  Q 65.96 109.57 65.28 110.78
  Q 64.54 112.09 63.52 112.95
  Q 63.14 113.28 63.15 113.78
  L 63.28 118.60"
/>
<path stroke="#865846" vector-effect="non-scaling-stroke" d="
  M 62.54 120.10
  Q 61.51 117.33 61.56 115.75
  Q 61.76 109.39 61.45 103.30
  C 60.87 92.34 62.05 80.65 66.68 70.64
  Q 69.78 63.93 73.41 57.42"
/>
<path stroke="#fd7a35" vector-effect="non-scaling-stroke" d="
  M 73.41 57.42
  L 72.36 61.82
  Q 72.18 62.56 72.74 62.04
  Q 75.27 59.66 76.39 56.69
  C 76.77 55.70 77.43 54.87 78.07 54.03
  A 2.16 2.07 4.7 0 1 78.82 53.42
  Q 83.07 51.45 83.91 50.15
  Q 85.58 47.55 91.03 40.90
  Q 91.63 40.17 93.11 36.99
  Q 93.90 35.30 95.98 33.17
  Q 96.32 32.82 96.43 32.34
  Q 96.63 31.40 97.45 30.98
  A 0.99 0.96 -7.7 0 0 97.96 30.33
  Q 98.28 28.82 99.26 27.72
  Q 99.46 27.49 99.22 27.30
  L 99.00 27.14
  Q 98.91 27.07 98.83 27.16
  L 95.54 30.91
  Q 95.21 31.28 95.36 30.81
  C 95.73 29.59 97.22 29.39 97.55 27.75"
/>
<path stroke="#8b8264" vector-effect="non-scaling-stroke" d="
  M 97.55 27.75
  L 104.30 20.88"
/>
<path stroke="#889274" vector-effect="non-scaling-stroke" d="
  M 104.30 20.88
  Q 106.36 20.14 107.14 18.66"
/>
<path stroke="#135e86" vector-effect="non-scaling-stroke" d="
  M 57.58 97.55
  Q 58.17 95.25 58.27 92.70
  Q 58.40 89.49 58.75 87.86
  Q 60.61 79.34 63.82 71.30"
/>
<path stroke="#855657" vector-effect="non-scaling-stroke" d="
  M 73.41 57.42
  L 81.08 46.01"
/>
<path stroke="#8a8075" vector-effect="non-scaling-stroke" d="
  M 97.55 27.75
  Q 95.17 29.43 94.37 30.37
  Q 87.71 38.17 81.08 46.01"
/>
<path stroke="#135e86" vector-effect="non-scaling-stroke" d="
  M 81.08 46.01
  Q 81.01 44.90 81.77 43.95
  A 0.27 0.27 0.0 0 0 81.74 43.58
  L 81.54 43.39
  Q 81.35 43.22 81.18 43.40
  Q 77.24 47.53 76.43 48.73
  Q 69.19 59.47 63.82 71.30"
/>
<path stroke="#1598b4" vector-effect="non-scaling-stroke" d="
  M 104.30 20.88
  Q 96.71 25.11 90.86 31.02
  Q 90.63 31.26 90.62 31.59
  Q 90.62 32.03 90.12 32.07
  A 0.70 0.70 0.0 0 0 89.55 32.45
  Q 88.81 33.96 87.41 34.91
  C 86.41 35.60 85.99 36.66 85.19 37.53
  Q 85.08 37.65 85.08 37.49
  Q 85.09 37.34 85.14 37.19
  A 0.61 0.58 -1.6 0 1 85.51 36.82
  Q 85.95 36.67 85.90 36.20
  Q 85.85 35.74 86.08 35.33
  Q 86.76 34.08 87.72 33.21
  Q 87.94 33.01 87.77 32.79
  Q 87.74 32.75 87.69 32.74
  Q 87.39 32.67 87.59 32.43
  Q 87.63 32.37 87.69 32.33
  Q 88.15 32.06 87.63 32.17
  Q 85.89 32.57 85.21 34.12
  Q 85.03 34.53 84.63 34.72
  Q 83.54 35.24 82.79 36.18
  Q 81.49 37.82 80.01 39.21
  Q 78.71 40.43 77.80 42.22
  Q 76.05 45.64 73.70 48.81
  Q 73.21 49.47 73.06 50.26
  Q 72.95 50.88 72.46 51.27
  Q 70.24 53.02 68.70 55.64
  Q 68.27 56.37 67.55 56.84
  Q 67.11 57.12 66.97 57.63
  L 66.77 58.38
  A 1.59 1.58 -13.8 0 1 66.33 59.10
  Q 65.55 59.83 65.10 60.78
  Q 64.71 61.61 64.10 62.53
  Q 63.53 63.40 63.30 64.51
  Q 63.25 64.76 63.50 64.81
  L 63.77 64.85
  A 0.38 0.38 0.0 0 0 64.22 64.50
  Q 64.33 62.99 65.62 62.14
  Q 66.29 61.71 66.35 60.92
  Q 66.42 60.03 67.21 59.54
  Q 67.41 59.42 67.52 59.22
  Q 67.64 59.00 67.61 58.76
  Q 67.55 58.25 67.88 57.86
  Q 69.34 56.10 70.63 54.01
  Q 70.97 53.45 72.13 52.94
  Q 72.55 52.76 72.63 52.30
  Q 72.66 52.12 72.82 52.01
  Q 73.61 51.47 73.07 52.26
  Q 71.59 54.42 69.94 56.11
  Q 69.63 56.43 69.59 56.88
  Q 69.33 59.56 67.42 61.16
  Q 67.00 61.51 66.84 62.04
  Q 66.49 63.16 65.70 64.02
  Q 65.29 64.47 65.38 65.06
  Q 65.48 65.68 64.97 66.07
  Q 64.56 66.39 64.59 66.90
  Q 64.64 67.88 63.90 68.61
  Q 63.52 68.99 63.59 69.53
  L 63.82 71.30"
/>
<path stroke="#1598b4" vector-effect="non-scaling-stroke" d="
  M 63.82 71.30
  Q 62.59 71.80 62.62 73.12
  Q 62.63 73.69 62.17 74.04
  Q 61.75 74.36 61.62 75.13
  Q 61.49 75.81 61.06 76.36
  Q 60.44 77.15 60.36 78.14
  Q 60.32 78.64 60.18 79.11
  L 59.14 82.57
  Q 59.06 82.83 58.82 82.96
  Q 58.66 83.05 58.61 83.25
  Q 57.08 90.23 57.58 97.55"
/>
<path stroke="#106e96" vector-effect="non-scaling-stroke" d="
  M 57.58 97.55
  Q 56.95 100.22 56.75 103.16
  Q 56.52 106.44 56.02 108.77
  Q 55.11 112.99 54.04 119.26
  Q 53.89 120.10 53.29 119.80"
/>
<path stroke="#1598b4" vector-effect="non-scaling-stroke" d="
  M 55.52 145.33
  Q 54.74 146.95 55.35 148.18
  Q 55.59 148.65 55.35 149.11
  Q 54.52 150.74 55.81 151.77
  Q 56.18 152.07 56.13 152.54
  Q 55.71 156.90 55.92 161.80
  Q 55.93 162.02 56.14 162.08
  Q 56.45 162.17 56.43 162.48
  Q 56.34 164.34 57.30 165.76
  Q 58.14 167.00 58.53 168.71
  Q 58.87 170.25 59.46 171.73
  Q 59.67 172.26 59.61 172.82
  Q 59.52 173.79 60.05 174.60
  Q 60.32 175.01 60.38 175.50
  Q 60.65 177.76 61.67 179.79
  Q 61.70 179.86 61.76 179.88
  Q 61.94 179.95 62.01 179.79
  A 0.04 0.04 0.0 0 1 62.09 179.79
  C 62.59 181.21 62.45 182.60 63.04 183.90
  Q 64.67 187.46 65.58 190.97
  C 65.77 191.69 65.50 192.48 65.78 193.32
  Q 66.94 196.79 68.34 200.13
  Q 68.50 200.51 68.29 200.80
  Q 68.05 201.12 68.20 201.48
  L 70.55 207.07
  Q 70.65 207.31 70.56 207.56
  L 70.20 208.57
  A 0.61 0.60 -51.5 0 0 70.26 209.10
  L 73.38 213.79
  Q 73.50 213.98 73.64 213.79
  Q 73.78 213.60 73.96 213.64
  Q 74.16 213.68 74.21 213.88
  Q 74.57 215.21 75.74 216.18
  Q 75.88 216.30 75.85 216.47
  Q 75.83 216.66 75.69 216.70
  Q 75.23 216.86 75.51 217.26
  Q 75.88 217.80 76.35 218.29
  Q 76.85 218.83 76.15 218.62
  Q 75.92 218.55 75.75 218.71
  A 0.43 0.42 -37.4 0 1 75.09 218.63
  Q 74.58 217.81 73.85 218.46
  Q 73.76 218.54 73.72 218.65
  Q 73.70 218.71 73.74 218.75
  Q 74.10 219.08 73.62 219.17
  Q 73.04 219.27 72.62 219.68
  Q 72.51 219.79 72.64 219.87
  Q 72.76 219.94 72.81 220.06
  Q 72.94 220.43 72.55 220.48
  Q 71.22 220.65 70.08 221.26
  Q 69.83 221.39 69.80 221.11
  Q 69.71 220.32 69.05 220.76
  Q 68.57 221.08 68.40 220.52
  Q 67.69 218.13 65.09 218.93
  Q 64.64 219.06 64.65 219.53
  L 64.66 220.48
  Q 64.66 220.75 64.94 220.79
  Q 65.09 220.81 65.20 220.73
  Q 65.83 220.26 65.81 221.07
  Q 65.78 223.03 63.80 223.53
  Q 63.22 223.68 63.21 224.27
  Q 63.19 224.99 62.62 224.54
  Q 60.62 222.96 58.26 221.98
  Q 57.75 221.77 57.19 221.87
  Q 56.77 221.96 56.44 221.66
  Q 55.72 221.01 54.71 220.64
  Q 54.11 220.41 54.61 220.81
  Q 55.16 221.24 56.51 222.02
  Q 57.72 222.73 59.34 225.20"
/>
<path stroke="#3767a0" vector-effect="non-scaling-stroke" d="
  M 59.34 225.20
  Q 46.05 218.95 35.27 211.41
  Q 22.24 202.30 11.80 188.84"
/>
<path stroke="#3a5790" vector-effect="non-scaling-stroke" d="
  M 91.94 234.83
  Q 75.19 231.03 59.34 225.20"
/>
<path stroke="#e55d87" vector-effect="non-scaling-stroke" d="
  M 258.79 91.93
  Q 255.85 89.56 253.05 87.08
  Q 251.68 85.87 250.23 85.01
  Q 248.94 84.26 247.88 83.19
  Q 243.42 78.73 237.81 75.90
  Q 235.23 74.60 232.80 72.88
  Q 230.42 71.21 227.25 70.09
  Q 225.23 69.39 223.42 68.50
  Q 221.54 67.57 219.78 66.69"
/>
<path stroke="#ce5467" vector-effect="non-scaling-stroke" d="
  M 219.78 66.69
  Q 219.98 65.74 218.40 65.05
  Q 212.73 62.56 207.00 60.19
  C 206.12 59.82 204.90 59.69 203.89 59.42"
/>
<path stroke="#ee5d44" vector-effect="non-scaling-stroke" d="
  M 203.89 59.42
  Q 204.06 59.40 204.19 59.38
  Q 204.55 59.30 204.31 59.02
  L 203.80 58.43"
/>
<path stroke="#f7643b" vector-effect="non-scaling-stroke" d="
  M 203.80 58.43
  Q 202.36 57.12 200.49 56.53
  Q 199.66 56.27 198.39 54.64
  A 0.07 0.07 0.0 0 1 198.42 54.54
  Q 198.63 54.47 198.71 54.27
  Q 198.82 53.97 198.55 53.81
  Q 197.18 53.01 195.98 51.56
  Q 194.89 50.24 193.56 49.08
  Q 192.13 47.84 190.73 46.54
  Q 190.27 46.11 189.91 45.58
  Q 189.48 44.95 188.72 44.68
  Q 188.54 44.61 188.71 44.54
  Q 188.77 44.51 188.77 44.45
  Q 188.76 44.26 188.58 44.18
  Q 186.93 43.50 187.07 41.78"
/>
<path stroke="#c03966" vector-effect="non-scaling-stroke" d="
  M 200.07 57.77
  L 203.89 59.42"
/>
<path stroke="#b738a9" vector-effect="non-scaling-stroke" d="
  M 219.78 66.69
  Q 218.99 66.56 218.97 66.56
  Q 217.50 66.71 218.94 67.03
  Q 220.06 67.28 220.51 67.88
  Q 220.63 68.06 220.41 68.06
  Q 220.29 68.07 220.15 68.10
  Q 219.51 68.25 220.16 68.38
  Q 220.31 68.41 220.50 68.38
  Q 220.84 68.32 220.68 68.63
  C 220.28 69.42 220.45 70.43 221.03 71.07
  Q 222.81 73.03 222.74 75.66
  Q 222.63 79.83 221.53 83.97
  Q 220.40 88.28 219.57 92.55
  Q 219.32 93.83 218.73 94.96
  Q 218.51 95.38 218.58 95.86
  Q 218.69 96.54 218.55 97.21"
/>
<path stroke="#e9493a" vector-effect="non-scaling-stroke" d="
  M 203.80 58.43
  C 202.13 58.54 201.87 56.74 199.78 57.24"
/>
<path stroke="#cf4437" vector-effect="non-scaling-stroke" d="
  M 199.78 57.24
  L 193.05 53.89
  Q 192.64 53.68 192.37 53.30
  Q 191.63 52.24 189.65 52.49"
/>
<path stroke="#85236a" vector-effect="non-scaling-stroke" d="
  M 191.50 57.27
  L 187.40 61.42
  Q 187.06 61.77 186.88 62.23
  Q 185.30 66.33 184.92 70.32
  Q 184.61 73.48 187.34 76.01
  Q 189.57 78.07 192.28 79.69
  Q 196.93 82.46 201.75 84.90
  Q 207.45 87.80 218.55 97.21"
/>
<path stroke="#9c2c8a" vector-effect="non-scaling-stroke" d="
  M 218.55 97.21
  Q 233.25 111.73 239.33 119.18
  Q 243.75 124.61 246.65 128.00
  Q 251.62 133.83 253.64 137.05
  Q 257.33 142.90 260.11 149.17"
/>
<path stroke="#af403e" vector-effect="non-scaling-stroke" d="
  M 258.01 147.45
  Q 255.40 142.86 250.36 136.37
  Q 244.54 128.87 240.11 123.83
  C 237.36 120.71 234.35 116.53 231.02 113.24"
/>
<path stroke="#8c2844" vector-effect="non-scaling-stroke" d="
  M 231.02 113.24
  Q 222.75 104.59 213.18 97.53
  Q 211.96 96.63 210.97 95.34
  Q 209.96 94.04 208.83 93.09
  Q 208.27 92.62 207.62 92.94
  Q 207.17 93.16 207.12 93.66
  Q 207.05 94.46 206.38 94.98"
/>
<path stroke="#c73e40" vector-effect="non-scaling-stroke" d="
  M 199.78 57.24
  Q 199.99 57.51 200.07 57.77"
/>
<path stroke="#a73463" vector-effect="non-scaling-stroke" d="
  M 200.07 57.77
  Q 197.74 57.35 197.13 57.12
  Q 194.65 56.20 192.03 56.35"
/>
<path stroke="#b4411a" vector-effect="non-scaling-stroke" d="
  M 227.43 230.44
  Q 229.82 217.23 230.21 203.75
  Q 230.53 192.62 230.84 181.50
  Q 231.37 162.49 231.35 161.50
  Q 231.09 150.49 228.56 139.77"
/>
<path stroke="#d15137" vector-effect="non-scaling-stroke" d="
  M 231.02 113.24
  Q 230.18 113.35 229.14 112.62
  Q 228.70 112.31 228.55 112.83
  Q 228.12 114.30 228.14 115.86
  Q 228.15 116.99 227.79 118.00
  Q 227.16 119.76 227.38 121.60
  Q 227.62 123.70 226.46 124.36
  A 1.08 1.08 0.0 0 0 226.08 125.85
  Q 227.35 127.95 226.80 130.73"
/>
<path stroke="#aa2e22" vector-effect="non-scaling-stroke" d="
  M 226.15 230.69
  Q 225.97 228.78 226.03 228.25
  Q 227.88 210.62 228.46 196.68
  Q 229.00 183.97 229.15 171.11
  Q 229.25 162.06 228.93 152.25
  Q 228.80 148.36 227.62 145.53"
/>
<path stroke="#b63463" vector-effect="non-scaling-stroke" d="
  M 131.57 288.67
  Q 131.76 287.47 130.58 286.83
  Q 130.17 286.61 130.01 286.17
  Q 129.52 284.76 128.91 283.42
  Q 128.39 282.28 128.07 280.95
  Q 127.48 278.50 127.07 276.29
  Q 126.44 272.87 127.25 268.96
  Q 127.35 268.49 126.90 268.33
  Q 126.69 268.26 126.61 268.04
  Q 126.43 267.54 126.94 267.39
  L 129.09 266.75
  Q 129.50 266.63 129.74 266.28
  Q 131.32 263.96 132.43 263.41
  Q 147.97 255.63 159.80 247.58
  Q 162.96 245.43 164.11 241.86"
/>
<path stroke="#962a86" vector-effect="non-scaling-stroke" d="
  M 77.09 282.65
  Q 78.58 279.64 76.37 277.20
  A 1.29 1.26 -18.5 0 0 75.48 276.77
  Q 74.68 276.72 74.03 276.32
  C 73.15 275.79 72.04 276.19 71.87 277.26
  Q 71.86 277.35 71.77 277.38
  Q 71.63 277.43 71.47 277.41
  Q 71.26 277.38 71.25 277.17
  Q 71.25 276.34 70.57 275.96
  Q 70.13 275.71 70.13 275.21
  L 70.13 273.01
  Q 70.13 272.43 70.70 272.49
  Q 72.94 272.73 74.32 274.52
  A 1.25 1.23 72.6 0 0 75.24 275.01
  Q 77.29 275.14 79.39 275.67
  Q 81.52 276.20 83.66 276.16
  Q 86.74 276.09 89.73 276.14
  C 90.97 276.16 91.86 275.47 93.08 275.40
  Q 96.31 275.20 99.39 275.62
  C 100.86 275.82 101.64 275.15 103.02 275.14
  Q 104.42 275.13 105.86 274.75
  Q 108.71 274.01 111.68 273.61
  Q 112.70 273.47 113.53 272.69
  Q 113.94 272.31 114.50 272.31
  Q 117.25 272.29 119.21 270.51
  Q 119.51 270.23 119.13 270.37
  Q 118.28 270.69 117.65 271.24
  Q 117.28 271.57 116.78 271.58
  Q 114.54 271.65 112.19 272.68
  Q 111.28 273.08 110.29 273.22
  Q 109.25 273.36 108.21 273.57
  Q 104.74 274.27 100.18 274.33
  Q 99.49 274.34 100.00 273.88
  Q 100.20 273.69 100.49 273.67
  Q 102.99 273.50 105.74 272.94
  Q 109.83 272.11 113.62 270.99"
/>
<path stroke="#7b1e67" vector-effect="non-scaling-stroke" d="
  M 113.62 270.99
  Q 117.01 269.94 119.37 268.36
  Q 120.12 267.86 119.23 267.94
  Q 117.83 268.07 116.63 268.68
  Q 115.19 269.41 113.86 269.65
  Q 108.52 270.59 103.39 269.78"
/>
<path stroke="#7b1e67" vector-effect="non-scaling-stroke" d="
  M 111.18 267.81
  Q 115.18 270.29 117.13 266.84
  Q 117.37 266.43 117.84 266.37
  Q 118.67 266.27 119.04 265.51"
/>
<path stroke="#85236a" vector-effect="non-scaling-stroke" d="
  M 113.62 270.99
  L 105.84 271.84
  Q 105.45 271.88 105.11 272.08
  Q 104.79 272.28 104.25 272.33
  Q 99.32 272.70 94.01 273.49
  Q 92.24 273.75 90.50 273.58
  Q 88.73 273.42 86.94 273.40
  Q 85.79 273.39 84.66 272.77
  Q 83.56 272.17 82.48 271.62"
/>
</g>
<path fill="#fe7b24" d="
  M 149.24 43.39
  Q 141.66 46.40 134.67 51.16
  Q 127.98 55.71 121.19 60.13
  Q 117.30 62.65 113.75 65.41
  C 107.75 70.04 101.48 74.19 95.82 79.22
  Q 84.91 88.94 76.17 97.77
  Q 72.12 101.86 66.89 108.41
  Q 65.96 109.57 65.28 110.78
  Q 64.54 112.09 63.52 112.95
  Q 63.14 113.28 63.15 113.78
  L 63.28 118.60
  L 62.54 120.10
  Q 61.51 117.33 61.56 115.75
  Q 61.76 109.39 61.45 103.30
  C 60.87 92.34 62.05 80.65 66.68 70.64
  Q 69.78 63.93 73.41 57.42
  L 72.36 61.82
  Q 72.18 62.56 72.74 62.04
  Q 75.27 59.66 76.39 56.69
  C 76.77 55.70 77.43 54.87 78.07 54.03
  A 2.16 2.07 4.7 0 1 78.82 53.42
  Q 83.07 51.45 83.91 50.15
  Q 85.58 47.55 91.03 40.90
  Q 91.63 40.17 93.11 36.99
  Q 93.90 35.30 95.98 33.17
  Q 96.32 32.82 96.43 32.34
  Q 96.63 31.40 97.45 30.98
  A 0.99 0.96 -7.7 0 0 97.96 30.33
  Q 98.28 28.82 99.26 27.72
  Q 99.46 27.49 99.22 27.30
  L 99.00 27.14
  Q 98.91 27.07 98.83 27.16
  L 95.54 30.91
  Q 95.21 31.28 95.36 30.81
  C 95.73 29.59 97.22 29.39 97.55 27.75
  L 104.30 20.88
  Q 106.36 20.14 107.14 18.66
  Q 108.73 19.14 110.02 18.53
  Q 114.92 16.23 123.71 11.61
  Q 135.15 5.60 145.34 3.26
  C 154.90 1.06 164.55 0.22 173.09 5.33
  Q 175.82 6.97 178.58 8.83
  A 4.95 4.93 -29.9 0 0 181.69 9.66
  C 193.07 8.86 204.76 8.32 216.09 10.81
  Q 222.36 12.19 227.41 15.60
  Q 233.06 19.43 236.68 24.89
  Q 237.48 26.10 236.05 26.33
  C 223.03 28.46 209.77 27.30 196.71 28.69
  Q 188.30 29.59 181.75 31.00
  Q 177.80 31.85 170.82 34.62
  Q 159.94 38.93 149.24 43.39
  Z"
/>
<path fill="#12a8c4" d="
  M 107.14 18.66
  Q 106.36 20.14 104.30 20.88
  Q 96.71 25.11 90.86 31.02
  Q 90.63 31.26 90.62 31.59
  Q 90.62 32.03 90.12 32.07
  A 0.70 0.70 0.0 0 0 89.55 32.45
  Q 88.81 33.96 87.41 34.91
  C 86.41 35.60 85.99 36.66 85.19 37.53
  Q 85.08 37.65 85.08 37.49
  Q 85.09 37.34 85.14 37.19
  A 0.61 0.58 -1.6 0 1 85.51 36.82
  Q 85.95 36.67 85.90 36.20
  Q 85.85 35.74 86.08 35.33
  Q 86.76 34.08 87.72 33.21
  Q 87.94 33.01 87.77 32.79
  Q 87.74 32.75 87.69 32.74
  Q 87.39 32.67 87.59 32.43
  Q 87.63 32.37 87.69 32.33
  Q 88.15 32.06 87.63 32.17
  Q 85.89 32.57 85.21 34.12
  Q 85.03 34.53 84.63 34.72
  Q 83.54 35.24 82.79 36.18
  Q 81.49 37.82 80.01 39.21
  Q 78.71 40.43 77.80 42.22
  Q 76.05 45.64 73.70 48.81
  Q 73.21 49.47 73.06 50.26
  Q 72.95 50.88 72.46 51.27
  Q 70.24 53.02 68.70 55.64
  Q 68.27 56.37 67.55 56.84
  Q 67.11 57.12 66.97 57.63
  L 66.77 58.38
  A 1.59 1.58 -13.8 0 1 66.33 59.10
  Q 65.55 59.83 65.10 60.78
  Q 64.71 61.61 64.10 62.53
  Q 63.53 63.40 63.30 64.51
  Q 63.25 64.76 63.50 64.81
  L 63.77 64.85
  A 0.38 0.38 0.0 0 0 64.22 64.50
  Q 64.33 62.99 65.62 62.14
  Q 66.29 61.71 66.35 60.92
  Q 66.42 60.03 67.21 59.54
  Q 67.41 59.42 67.52 59.22
  Q 67.64 59.00 67.61 58.76
  Q 67.55 58.25 67.88 57.86
  Q 69.34 56.10 70.63 54.01
  Q 70.97 53.45 72.13 52.94
  Q 72.55 52.76 72.63 52.30
  Q 72.66 52.12 72.82 52.01
  Q 73.61 51.47 73.07 52.26
  Q 71.59 54.42 69.94 56.11
  Q 69.63 56.43 69.59 56.88
  Q 69.33 59.56 67.42 61.16
  Q 67.00 61.51 66.84 62.04
  Q 66.49 63.16 65.70 64.02
  Q 65.29 64.47 65.38 65.06
  Q 65.48 65.68 64.97 66.07
  Q 64.56 66.39 64.59 66.90
  Q 64.64 67.88 63.90 68.61
  Q 63.52 68.99 63.59 69.53
  L 63.82 71.30
  Q 62.59 71.80 62.62 73.12
  Q 62.63 73.69 62.17 74.04
  Q 61.75 74.36 61.62 75.13
  Q 61.49 75.81 61.06 76.36
  Q 60.44 77.15 60.36 78.14
  Q 60.32 78.64 60.18 79.11
  L 59.14 82.57
  Q 59.06 82.83 58.82 82.96
  Q 58.66 83.05 58.61 83.25
  Q 57.08 90.23 57.58 97.55
  Q 56.95 100.22 56.75 103.16
  Q 56.52 106.44 56.02 108.77
  Q 55.11 112.99 54.04 119.26
  Q 53.89 120.10 53.29 119.80
  Q 53.03 119.30 53.02 119.30
  A 0.56 0.55 -69.0 0 0 52.17 119.69
  C 51.61 123.40 51.82 126.55 52.68 130.29
  Q 54.40 137.71 55.52 145.33
  Q 54.74 146.95 55.35 148.18
  Q 55.59 148.65 55.35 149.11
  Q 54.52 150.74 55.81 151.77
  Q 56.18 152.07 56.13 152.54
  Q 55.71 156.90 55.92 161.80
  Q 55.93 162.02 56.14 162.08
  Q 56.45 162.17 56.43 162.48
  Q 56.34 164.34 57.30 165.76
  Q 58.14 167.00 58.53 168.71
  Q 58.87 170.25 59.46 171.73
  Q 59.67 172.26 59.61 172.82
  Q 59.52 173.79 60.05 174.60
  Q 60.32 175.01 60.38 175.50
  Q 60.65 177.76 61.67 179.79
  Q 61.70 179.86 61.76 179.88
  Q 61.94 179.95 62.01 179.79
  A 0.04 0.04 0.0 0 1 62.09 179.79
  C 62.59 181.21 62.45 182.60 63.04 183.90
  Q 64.67 187.46 65.58 190.97
  C 65.77 191.69 65.50 192.48 65.78 193.32
  Q 66.94 196.79 68.34 200.13
  Q 68.50 200.51 68.29 200.80
  Q 68.05 201.12 68.20 201.48
  L 70.55 207.07
  Q 70.65 207.31 70.56 207.56
  L 70.20 208.57
  A 0.61 0.60 -51.5 0 0 70.26 209.10
  L 73.38 213.79
  Q 73.50 213.98 73.64 213.79
  Q 73.78 213.60 73.96 213.64
  Q 74.16 213.68 74.21 213.88
  Q 74.57 215.21 75.74 216.18
  Q 75.88 216.30 75.85 216.47
  Q 75.83 216.66 75.69 216.70
  Q 75.23 216.86 75.51 217.26
  Q 75.88 217.80 76.35 218.29
  Q 76.85 218.83 76.15 218.62
  Q 75.92 218.55 75.75 218.71
  A 0.43 0.42 -37.4 0 1 75.09 218.63
  Q 74.58 217.81 73.85 218.46
  Q 73.76 218.54 73.72 218.65
  Q 73.70 218.71 73.74 218.75
  Q 74.10 219.08 73.62 219.17
  Q 73.04 219.27 72.62 219.68
  Q 72.51 219.79 72.64 219.87
  Q 72.76 219.94 72.81 220.06
  Q 72.94 220.43 72.55 220.48
  Q 71.22 220.65 70.08 221.26
  Q 69.83 221.39 69.80 221.11
  Q 69.71 220.32 69.05 220.76
  Q 68.57 221.08 68.40 220.52
  Q 67.69 218.13 65.09 218.93
  Q 64.64 219.06 64.65 219.53
  L 64.66 220.48
  Q 64.66 220.75 64.94 220.79
  Q 65.09 220.81 65.20 220.73
  Q 65.83 220.26 65.81 221.07
  Q 65.78 223.03 63.80 223.53
  Q 63.22 223.68 63.21 224.27
  Q 63.19 224.99 62.62 224.54
  Q 60.62 222.96 58.26 221.98
  Q 57.75 221.77 57.19 221.87
  Q 56.77 221.96 56.44 221.66
  Q 55.72 221.01 54.71 220.64
  Q 54.11 220.41 54.61 220.81
  Q 55.16 221.24 56.51 222.02
  Q 57.72 222.73 59.34 225.20
  Q 46.05 218.95 35.27 211.41
  Q 22.24 202.30 11.80 188.84
  Q 11.27 188.16 10.71 186.97
  Q 10.25 185.99 9.62 185.10
  Q 1.79 174.04 0.49 161.84
  Q -1.20 146.00 4.62 130.76
  Q 6.59 125.60 10.06 121.94
  Q 10.47 121.50 11.06 121.50
  L 14.27 121.50
  A 1.47 1.45 -83.5 0 0 15.69 120.36
  Q 16.08 118.56 15.78 116.74
  Q 14.33 107.92 14.07 98.83
  C 13.63 83.55 22.35 69.82 34.79 61.80
  Q 35.90 61.09 36.36 60.99
  Q 37.64 60.73 37.49 62.02
  Q 36.35 71.69 35.32 81.40
  Q 34.89 85.45 35.52 88.67
  Q 35.72 89.74 36.24 88.78
  Q 36.56 88.20 36.62 87.51
  Q 37.39 77.19 39.09 68.08
  Q 39.85 64.03 41.53 60.00
  C 42.99 56.50 44.04 52.82 45.90 49.58
  Q 55.00 33.74 71.89 26.16
  C 81.24 21.97 91.32 18.30 101.62 17.68
  Q 104.30 17.52 107.14 18.66
  Z"
/>
<path fill="#1888a4" d="
  M 104.30 20.88
  L 97.55 27.75
  Q 95.17 29.43 94.37 30.37
  Q 87.71 38.17 81.08 46.01
  Q 81.01 44.90 81.77 43.95
  A 0.27 0.27 0.0 0 0 81.74 43.58
  L 81.54 43.39
  Q 81.35 43.22 81.18 43.40
  Q 77.24 47.53 76.43 48.73
  Q 69.19 59.47 63.82 71.30
  L 63.59 69.53
  Q 63.52 68.99 63.90 68.61
  Q 64.64 67.88 64.59 66.90
  Q 64.56 66.39 64.97 66.07
  Q 65.48 65.68 65.38 65.06
  Q 65.29 64.47 65.70 64.02
  Q 66.49 63.16 66.84 62.04
  Q 67.00 61.51 67.42 61.16
  Q 69.33 59.56 69.59 56.88
  Q 69.63 56.43 69.94 56.11
  Q 71.59 54.42 73.07 52.26
  Q 73.61 51.47 72.82 52.01
  Q 72.66 52.12 72.63 52.30
  Q 72.55 52.76 72.13 52.94
  Q 70.97 53.45 70.63 54.01
  Q 69.34 56.10 67.88 57.86
  Q 67.55 58.25 67.61 58.76
  Q 67.64 59.00 67.52 59.22
  Q 67.41 59.42 67.21 59.54
  Q 66.42 60.03 66.35 60.92
  Q 66.29 61.71 65.62 62.14
  Q 64.33 62.99 64.22 64.50
  A 0.38 0.38 0.0 0 1 63.77 64.85
  L 63.50 64.81
  Q 63.25 64.76 63.30 64.51
  Q 63.53 63.40 64.10 62.53
  Q 64.71 61.61 65.10 60.78
  Q 65.55 59.83 66.33 59.10
  A 1.59 1.58 -13.8 0 0 66.77 58.38
  L 66.97 57.63
  Q 67.11 57.12 67.55 56.84
  Q 68.27 56.37 68.70 55.64
  Q 70.24 53.02 72.46 51.27
  Q 72.95 50.88 73.06 50.26
  Q 73.21 49.47 73.70 48.81
  Q 76.05 45.64 77.80 42.22
  Q 78.71 40.43 80.01 39.21
  Q 81.49 37.82 82.79 36.18
  Q 83.54 35.24 84.63 34.72
  Q 85.03 34.53 85.21 34.12
  Q 85.89 32.57 87.63 32.17
  Q 88.15 32.06 87.69 32.33
  Q 87.63 32.37 87.59 32.43
  Q 87.39 32.67 87.69 32.74
  Q 87.74 32.75 87.77 32.79
  Q 87.94 33.01 87.72 33.21
  Q 86.76 34.08 86.08 35.33
  Q 85.85 35.74 85.90 36.20
  Q 85.95 36.67 85.51 36.82
  A 0.61 0.58 -1.6 0 0 85.14 37.19
  Q 85.09 37.34 85.08 37.49
  Q 85.08 37.65 85.19 37.53
  C 85.99 36.66 86.41 35.60 87.41 34.91
  Q 88.81 33.96 89.55 32.45
  A 0.70 0.70 0.0 0 1 90.12 32.07
  Q 90.62 32.03 90.62 31.59
  Q 90.63 31.26 90.86 31.02
  Q 96.71 25.11 104.30 20.88
  Z"
/>
<path fill="#fc7845" d="
  M 73.41 57.42
  L 81.08 46.01
  Q 87.71 38.17 94.37 30.37
  Q 95.17 29.43 97.55 27.75
  C 97.22 29.39 95.73 29.59 95.36 30.81
  Q 95.21 31.28 95.54 30.91
  L 98.83 27.16
  Q 98.91 27.07 99.00 27.14
  L 99.22 27.30
  Q 99.46 27.49 99.26 27.72
  Q 98.28 28.82 97.96 30.33
  A 0.99 0.96 -7.7 0 1 97.45 30.98
  Q 96.63 31.40 96.43 32.34
  Q 96.32 32.82 95.98 33.17
  Q 93.90 35.30 93.11 36.99
  Q 91.63 40.17 91.03 40.90
  Q 85.58 47.55 83.91 50.15
  Q 83.07 51.45 78.82 53.42
  A 2.16 2.07 4.7 0 0 78.07 54.03
  C 77.43 54.87 76.77 55.70 76.39 56.69
  Q 75.27 59.66 72.74 62.04
  Q 72.18 62.56 72.36 61.82
  L 73.41 57.42
  Z"
/>
<path fill="#fc7845" d="
  M 258.79 91.93
  Q 255.85 89.56 253.05 87.08
  Q 251.68 85.87 250.23 85.01
  Q 248.94 84.26 247.88 83.19
  Q 243.42 78.73 237.81 75.90
  Q 235.23 74.60 232.80 72.88
  Q 230.42 71.21 227.25 70.09
  Q 225.23 69.39 223.42 68.50
  Q 221.54 67.57 219.78 66.69
  Q 219.98 65.74 218.40 65.05
  Q 212.73 62.56 207.00 60.19
  C 206.12 59.82 204.90 59.69 203.89 59.42
  Q 204.06 59.40 204.19 59.38
  Q 204.55 59.30 204.31 59.02
  L 203.80 58.43
  Q 202.36 57.12 200.49 56.53
  Q 199.66 56.27 198.39 54.64
  A 0.07 0.07 0.0 0 1 198.42 54.54
  Q 198.63 54.47 198.71 54.27
  Q 198.82 53.97 198.55 53.81
  Q 197.18 53.01 195.98 51.56
  Q 194.89 50.24 193.56 49.08
  Q 192.13 47.84 190.73 46.54
  Q 190.27 46.11 189.91 45.58
  Q 189.48 44.95 188.72 44.68
  Q 188.54 44.61 188.71 44.54
  Q 188.77 44.51 188.77 44.45
  Q 188.76 44.26 188.58 44.18
  Q 186.93 43.50 187.07 41.78
  Q 189.99 40.69 191.25 40.48
  C 218.91 35.98 244.04 44.62 258.38 69.90
  Q 261.35 75.13 261.61 81.19
  Q 261.71 83.63 260.66 86.64
  Q 259.78 89.15 258.79 91.93
  Z"
/>
<path fill="#f14f31" d="
  M 187.07 41.78
  Q 186.93 43.50 188.58 44.18
  Q 188.76 44.26 188.77 44.45
  Q 188.77 44.51 188.71 44.54
  Q 188.54 44.61 188.72 44.68
  Q 189.48 44.95 189.91 45.58
  Q 190.27 46.11 190.73 46.54
  Q 192.13 47.84 193.56 49.08
  Q 194.89 50.24 195.98 51.56
  Q 197.18 53.01 198.55 53.81
  Q 198.82 53.97 198.71 54.27
  Q 198.63 54.47 198.42 54.54
  A 0.07 0.07 0.0 0 0 198.39 54.64
  Q 199.66 56.27 200.49 56.53
  Q 202.36 57.12 203.80 58.43
  C 202.13 58.54 201.87 56.74 199.78 57.24
  L 193.05 53.89
  Q 192.64 53.68 192.37 53.30
  Q 191.63 52.24 189.65 52.49
  Q 186.26 48.68 184.85 46.16
  Q 183.17 43.19 187.07 41.78
  Z"
/>
<path fill="#0d3468" d="
  M 81.08 46.01
  L 73.41 57.42
  Q 69.78 63.93 66.68 70.64
  C 62.05 80.65 60.87 92.34 61.45 103.30
  Q 61.76 109.39 61.56 115.75
  Q 61.51 117.33 62.54 120.10
  Q 61.76 123.27 60.45 126.71
  Q 59.52 129.15 57.30 130.74
  A 1.05 1.05 0.0 0 1 55.79 130.45
  C 53.69 127.15 53.92 123.52 53.29 119.80
  Q 53.89 120.10 54.04 119.26
  Q 55.11 112.99 56.02 108.77
  Q 56.52 106.44 56.75 103.16
  Q 56.95 100.22 57.58 97.55
  Q 58.17 95.25 58.27 92.70
  Q 58.40 89.49 58.75 87.86
  Q 60.61 79.34 63.82 71.30
  Q 69.19 59.47 76.43 48.73
  Q 77.24 47.53 81.18 43.40
  Q 81.35 43.22 81.54 43.39
  L 81.74 43.58
  A 0.27 0.27 0.0 0 1 81.77 43.95
  Q 81.01 44.90 81.08 46.01
  Z"
/>
<path fill="#6a164b" d="
  M 149.24 43.39
  Q 133.02 53.07 117.85 64.07
  Q 110.45 69.44 103.04 74.80
  Q 96.25 79.70 82.27 93.29
  Q 71.55 103.71 63.28 118.60
  L 63.15 113.78
  Q 63.14 113.28 63.52 112.95
  Q 64.54 112.09 65.28 110.78
  Q 65.96 109.57 66.89 108.41
  Q 72.12 101.86 76.17 97.77
  Q 84.91 88.94 95.82 79.22
  C 101.48 74.19 107.75 70.04 113.75 65.41
  Q 117.30 62.65 121.19 60.13
  Q 127.98 55.71 134.67 51.16
  Q 141.66 46.40 149.24 43.39
  Z"
/>
<path fill="#ad393d" d="
  M 189.65 52.49
  Q 191.63 52.24 192.37 53.30
  Q 192.64 53.68 193.05 53.89
  L 199.78 57.24
  Q 199.99 57.51 200.07 57.77
  Q 197.74 57.35 197.13 57.12
  Q 194.65 56.20 192.03 56.35
  L 189.65 52.49
  Z"
/>
<path fill="#6a164b" d="
  M 191.50 57.27
  L 187.40 61.42
  Q 187.06 61.77 186.88 62.23
  Q 185.30 66.33 184.92 70.32
  Q 184.61 73.48 187.34 76.01
  Q 189.57 78.07 192.28 79.69
  Q 196.93 82.46 201.75 84.90
  Q 207.45 87.80 218.55 97.21
  Q 233.25 111.73 239.33 119.18
  Q 243.75 124.61 246.65 128.00
  Q 251.62 133.83 253.64 137.05
  Q 257.33 142.90 260.11 149.17
  L 258.01 147.45
  Q 255.40 142.86 250.36 136.37
  Q 244.54 128.87 240.11 123.83
  C 237.36 120.71 234.35 116.53 231.02 113.24
  Q 222.75 104.59 213.18 97.53
  Q 211.96 96.63 210.97 95.34
  Q 209.96 94.04 208.83 93.09
  Q 208.27 92.62 207.62 92.94
  Q 207.17 93.16 207.12 93.66
  Q 207.05 94.46 206.38 94.98
  Q 201.25 89.97 195.18 86.07
  Q 186.19 80.30 179.18 76.73
  Q 164.16 69.07 147.91 66.79
  Q 146.07 66.53 144.50 65.41
  A 1.04 1.01 18.3 0 1 144.07 64.58
  Q 144.08 62.91 145.65 62.25
  C 158.01 57.07 169.72 54.30 183.18 55.28
  Q 186.54 55.52 189.75 56.98
  Q 190.34 57.25 191.50 57.27
  Z"
/>
<path fill="#a02f89" d="
  M 192.03 56.35
  Q 194.65 56.20 197.13 57.12
  Q 197.74 57.35 200.07 57.77
  L 203.89 59.42
  C 204.90 59.69 206.12 59.82 207.00 60.19
  Q 212.73 62.56 218.40 65.05
  Q 219.98 65.74 219.78 66.69
  Q 218.99 66.56 218.97 66.56
  Q 217.50 66.71 218.94 67.03
  Q 220.06 67.28 220.51 67.88
  Q 220.63 68.06 220.41 68.06
  Q 220.29 68.07 220.15 68.10
  Q 219.51 68.25 220.16 68.38
  Q 220.31 68.41 220.50 68.38
  Q 220.84 68.32 220.68 68.63
  C 220.28 69.42 220.45 70.43 221.03 71.07
  Q 222.81 73.03 222.74 75.66
  Q 222.63 79.83 221.53 83.97
  Q 220.40 88.28 219.57 92.55
  Q 219.32 93.83 218.73 94.96
  Q 218.51 95.38 218.58 95.86
  Q 218.69 96.54 218.55 97.21
  Q 207.45 87.80 201.75 84.90
  Q 196.93 82.46 192.28 79.69
  Q 189.57 78.07 187.34 76.01
  Q 184.61 73.48 184.92 70.32
  Q 185.30 66.33 186.88 62.23
  Q 187.06 61.77 187.40 61.42
  L 191.50 57.27
  Q 192.19 56.61 192.03 56.35
  Z"
/>
<path fill="#e04242" d="
  M 199.78 57.24
  C 201.87 56.74 202.13 58.54 203.80 58.43
  L 204.31 59.02
  Q 204.55 59.30 204.19 59.38
  Q 204.06 59.40 203.89 59.42
  L 200.07 57.77
  Q 199.99 57.51 199.78 57.24
  Z"
/>
<path fill="#ce41c9" d="
  M 219.78 66.69
  Q 221.54 67.57 223.42 68.50
  Q 225.23 69.39 227.25 70.09
  Q 230.42 71.21 232.80 72.88
  Q 235.23 74.60 237.81 75.90
  Q 243.42 78.73 247.88 83.19
  Q 248.94 84.26 250.23 85.01
  Q 251.68 85.87 253.05 87.08
  Q 255.85 89.56 258.79 91.93
  Q 263.19 95.86 264.28 96.96
  C 278.24 110.91 286.28 133.70 284.29 153.12
  C 283.69 159.07 280.65 170.45 275.45 174.58
  Q 275.03 174.91 274.67 174.51
  C 271.46 170.95 269.85 166.39 267.87 162.21
  Q 266.60 159.54 263.95 155.73
  Q 261.70 152.48 260.11 149.17
  Q 257.33 142.90 253.64 137.05
  Q 251.62 133.83 246.65 128.00
  Q 243.75 124.61 239.33 119.18
  Q 233.25 111.73 218.55 97.21
  Q 218.69 96.54 218.58 95.86
  Q 218.51 95.38 218.73 94.96
  Q 219.32 93.83 219.57 92.55
  Q 220.40 88.28 221.53 83.97
  Q 222.63 79.83 222.74 75.66
  Q 222.81 73.03 221.03 71.07
  C 220.45 70.43 220.28 69.42 220.68 68.63
  Q 220.84 68.32 220.50 68.38
  Q 220.31 68.41 220.16 68.38
  Q 219.51 68.25 220.15 68.10
  Q 220.29 68.07 220.41 68.06
  Q 220.63 68.06 220.51 67.88
  Q 220.06 67.28 218.94 67.03
  Q 217.50 66.71 218.97 66.56
  Q 218.99 66.56 219.78 66.69
  Z"
/>
<path fill="#1888a4" d="
  M 63.82 71.30
  Q 60.61 79.34 58.75 87.86
  Q 58.40 89.49 58.27 92.70
  Q 58.17 95.25 57.58 97.55
  Q 57.08 90.23 58.61 83.25
  Q 58.66 83.05 58.82 82.96
  Q 59.06 82.83 59.14 82.57
  L 60.18 79.11
  Q 60.32 78.64 60.36 78.14
  Q 60.44 77.15 61.06 76.36
  Q 61.49 75.81 61.62 75.13
  Q 61.75 74.36 62.17 74.04
  Q 62.63 73.69 62.62 73.12
  Q 62.59 71.80 63.82 71.30
  Z"
/>
<path fill="#ad393d" d="
  M 231.02 113.24
  Q 230.18 113.35 229.14 112.62
  Q 228.70 112.31 228.55 112.83
  Q 228.12 114.30 228.14 115.86
  Q 228.15 116.99 227.79 118.00
  Q 227.16 119.76 227.38 121.60
  Q 227.62 123.70 226.46 124.36
  A 1.08 1.08 0.0 0 0 226.08 125.85
  Q 227.35 127.95 226.80 130.73
  Q 223.97 123.94 221.66 119.84
  Q 213.20 104.83 209.28 98.48
  Q 208.61 97.40 206.38 94.98
  Q 207.05 94.46 207.12 93.66
  Q 207.17 93.16 207.62 92.94
  Q 208.27 92.62 208.83 93.09
  Q 209.96 94.04 210.97 95.34
  Q 211.96 96.63 213.18 97.53
  Q 222.75 104.59 231.02 113.24
  Z"
/>
<path fill="#199fa7" d="
  M 83.00 105.98
  Q 84.85 102.51 89.80 98.11
  Q 93.08 95.19 97.97 94.89
  Q 99.36 94.80 99.54 96.19
  Q 100.49 103.51 100.47 110.88
  Q 100.46 112.71 99.77 114.38
  Q 99.54 114.92 98.97 114.83
  Q 91.88 113.82 85.34 112.70
  C 81.98 112.13 81.69 108.45 83.00 105.98
  Z"
/>
<path fill="#f14f31" d="
  M 184.98 108.23
  Q 186.34 105.79 186.99 103.19
  Q 187.14 102.58 186.80 102.05
  L 183.89 97.57
  A 0.73 0.73 0.0 0 1 184.34 96.46
  Q 190.92 95.02 196.82 97.64
  C 201.09 99.53 205.28 104.21 201.13 108.75
  Q 197.04 113.22 192.39 117.38
  A 1.21 1.20 45.9 0 1 190.75 117.35
  L 184.74 111.56
  A 1.17 1.17 0.0 0 1 184.39 110.83
  Q 184.27 109.50 184.98 108.23
  Z"
/>
<path fill="#f14f31" d="
  M 119.71 199.34
  C 100.11 189.86 89.19 171.93 89.52 150.45
  C 89.70 139.44 93.85 129.35 100.46 120.21
  Q 102.68 117.14 105.61 114.44
  Q 118.18 102.86 133.90 99.40
  C 147.10 96.49 159.18 100.04 170.97 107.47
  C 184.13 115.76 192.61 128.98 194.74 144.31
  Q 197.69 165.52 185.59 181.98
  C 179.64 190.08 170.02 197.30 160.82 201.45
  Q 151.73 205.55 142.87 205.34
  Q 131.57 205.07 119.71 199.34
  Z
  M 163.18 130.44
  C 157.65 122.97 148.28 122.17 139.46 122.87
  Q 130.23 123.60 124.22 129.81
  Q 118.70 135.51 121.20 144.34
  Q 121.53 145.53 122.65 145.81
  C 124.51 146.27 127.13 145.67 129.04 145.48
  A 0.86 0.84 -86.1 0 0 129.78 144.82
  Q 130.08 143.49 129.99 142.00
  C 129.60 135.44 136.86 131.26 142.60 131.27
  C 147.91 131.29 154.94 132.82 157.20 138.28
  C 158.10 140.45 158.69 143.45 160.79 144.60
  C 162.63 145.62 165.80 146.28 167.26 144.30
  C 169.55 141.22 165.13 133.07 163.18 130.44
  Z
  M 125.45 179.68
  C 133.30 184.07 146.39 183.78 154.42 181.67
  Q 168.57 177.95 168.19 163.30
  C 168.08 158.72 167.03 152.96 163.10 150.08
  C 159.57 147.49 155.98 146.48 151.58 146.71
  Q 144.23 147.10 135.55 147.14
  C 126.42 147.17 119.11 149.02 117.09 158.67
  Q 114.04 173.30 125.45 179.68
  Z"
/>
<path fill="#f46931" d="
  M 231.02 113.24
  C 234.35 116.53 237.36 120.71 240.11 123.83
  Q 244.54 128.87 250.36 136.37
  Q 255.40 142.86 258.01 147.45
  Q 258.77 150.70 259.31 151.76
  Q 267.09 167.01 270.87 178.64
  Q 275.97 194.32 273.20 210.42
  Q 271.91 217.87 267.18 225.18
  C 263.61 230.71 257.78 235.51 252.14 239.34
  Q 251.36 239.88 250.66 239.25
  C 249.07 237.82 246.43 236.49 245.34 239.45
  Q 243.62 244.08 240.62 247.53
  Q 232.25 257.14 221.62 264.04
  Q 220.13 265.00 218.44 264.98
  A 1.21 1.21 0.0 0 1 217.36 263.24
  Q 222.59 252.46 226.14 241.68
  Q 227.47 237.66 227.67 231.20
  Q 227.67 230.99 227.59 230.82
  Q 227.47 230.57 227.43 230.44
  Q 229.82 217.23 230.21 203.75
  Q 230.53 192.62 230.84 181.50
  Q 231.37 162.49 231.35 161.50
  Q 231.09 150.49 228.56 139.77
  L 226.80 130.73
  Q 227.35 127.95 226.08 125.85
  A 1.08 1.08 0.0 0 1 226.46 124.36
  Q 227.62 123.70 227.38 121.60
  Q 227.16 119.76 227.79 118.00
  Q 228.15 116.99 228.14 115.86
  Q 228.12 114.30 228.55 112.83
  Q 228.70 112.31 229.14 112.62
  Q 230.18 113.35 231.02 113.24
  Z"
/>
<path fill="#741902" d="
  M 228.56 139.77
  Q 231.09 150.49 231.35 161.50
  Q 231.37 162.49 230.84 181.50
  Q 230.53 192.62 230.21 203.75
  Q 229.82 217.23 227.43 230.44
  Q 226.84 230.25 226.15 230.69
  Q 225.97 228.78 226.03 228.25
  Q 227.88 210.62 228.46 196.68
  Q 229.00 183.97 229.15 171.11
  Q 229.25 162.06 228.93 152.25
  Q 228.80 148.36 227.62 145.53
  L 228.56 139.77
  Z"
/>
<path fill="#1888a4" d="
  M 55.52 145.33
  Q 59.52 166.72 69.92 186.05
  Q 73.03 191.85 77.71 197.52
  A 1.24 1.23 52.3 0 0 79.39 197.74
  C 81.22 196.43 82.96 195.35 85.33 195.43
  Q 91.90 195.65 97.78 196.59
  Q 100.25 196.99 99.49 199.37
  Q 98.51 202.47 96.87 205.68
  Q 96.03 207.32 97.53 208.39
  Q 104.70 213.51 113.58 218.44
  C 120.77 222.43 128.02 224.40 135.56 226.53
  Q 138.90 227.47 137.20 230.58
  C 135.41 233.84 131.94 234.96 128.45 235.65
  C 116.98 237.92 106.49 235.91 95.38 234.16
  C 94.11 233.96 93.09 234.38 91.94 234.83
  Q 75.19 231.03 59.34 225.20
  Q 57.72 222.73 56.51 222.02
  Q 55.16 221.24 54.61 220.81
  Q 54.11 220.41 54.71 220.64
  Q 55.72 221.01 56.44 221.66
  Q 56.77 221.96 57.19 221.87
  Q 57.75 221.77 58.26 221.98
  Q 60.62 222.96 62.62 224.54
  Q 63.19 224.99 63.21 224.27
  Q 63.22 223.68 63.80 223.53
  Q 65.78 223.03 65.81 221.07
  Q 65.83 220.26 65.20 220.73
  Q 65.09 220.81 64.94 220.79
  Q 64.66 220.75 64.66 220.48
  L 64.65 219.53
  Q 64.64 219.06 65.09 218.93
  Q 67.69 218.13 68.40 220.52
  Q 68.57 221.08 69.05 220.76
  Q 69.71 220.32 69.80 221.11
  Q 69.83 221.39 70.08 221.26
  Q 71.22 220.65 72.55 220.48
  Q 72.94 220.43 72.81 220.06
  Q 72.76 219.94 72.64 219.87
  Q 72.51 219.79 72.62 219.68
  Q 73.04 219.27 73.62 219.17
  Q 74.10 219.08 73.74 218.75
  Q 73.70 218.71 73.72 218.65
  Q 73.76 218.54 73.85 218.46
  Q 74.58 217.81 75.09 218.63
  A 0.43 0.42 -37.4 0 0 75.75 218.71
  Q 75.92 218.55 76.15 218.62
  Q 76.85 218.83 76.35 218.29
  Q 75.88 217.80 75.51 217.26
  Q 75.23 216.86 75.69 216.70
  Q 75.83 216.66 75.85 216.47
  Q 75.88 216.30 75.74 216.18
  Q 74.57 215.21 74.21 213.88
  Q 74.16 213.68 73.96 213.64
  Q 73.78 213.60 73.64 213.79
  Q 73.50 213.98 73.38 213.79
  L 70.26 209.10
  A 0.61 0.60 -51.5 0 1 70.20 208.57
  L 70.56 207.56
  Q 70.65 207.31 70.55 207.07
  L 68.20 201.48
  Q 68.05 201.12 68.29 200.80
  Q 68.50 200.51 68.34 200.13
  Q 66.94 196.79 65.78 193.32
  C 65.50 192.48 65.77 191.69 65.58 190.97
  Q 64.67 187.46 63.04 183.90
  C 62.45 182.60 62.59 181.21 62.09 179.79
  A 0.04 0.04 0.0 0 0 62.01 179.79
  Q 61.94 179.95 61.76 179.88
  Q 61.70 179.86 61.67 179.79
  Q 60.65 177.76 60.38 175.50
  Q 60.32 175.01 60.05 174.60
  Q 59.52 173.79 59.61 172.82
  Q 59.67 172.26 59.46 171.73
  Q 58.87 170.25 58.53 168.71
  Q 58.14 167.00 57.30 165.76
  Q 56.34 164.34 56.43 162.48
  Q 56.45 162.17 56.14 162.08
  Q 55.93 162.02 55.92 161.80
  Q 55.71 156.90 56.13 152.54
  Q 56.18 152.07 55.81 151.77
  Q 54.52 150.74 55.35 149.11
  Q 55.59 148.65 55.35 148.18
  Q 54.74 146.95 55.52 145.33
  Z"
/>
<path fill="#e04242" d="
  M 227.62 145.53
  Q 228.80 148.36 228.93 152.25
  Q 229.25 162.06 229.15 171.11
  Q 229.00 183.97 228.46 196.68
  Q 227.88 210.62 226.03 228.25
  Q 225.97 228.78 226.15 230.69
  Q 223.70 236.14 221.57 241.78
  Q 219.75 246.62 213.75 255.98
  Q 210.17 261.58 203.96 267.66
  Q 194.44 277.00 185.41 282.41
  C 177.08 287.40 168.47 289.56 158.53 290.09
  Q 145.00 290.80 131.57 288.67
  Q 131.76 287.47 130.58 286.83
  Q 130.17 286.61 130.01 286.17
  Q 129.52 284.76 128.91 283.42
  Q 128.39 282.28 128.07 280.95
  Q 127.48 278.50 127.07 276.29
  Q 126.44 272.87 127.25 268.96
  Q 127.35 268.49 126.90 268.33
  Q 126.69 268.26 126.61 268.04
  Q 126.43 267.54 126.94 267.39
  L 129.09 266.75
  Q 129.50 266.63 129.74 266.28
  Q 131.32 263.96 132.43 263.41
  Q 147.97 255.63 159.80 247.58
  Q 162.96 245.43 164.11 241.86
  Q 169.64 238.26 175.23 233.99
  Q 181.27 229.37 185.96 223.73
  C 188.54 220.63 190.20 218.15 194.86 218.27
  Q 199.45 218.39 204.52 218.19
  A 3.89 3.89 0.0 0 0 207.58 216.49
  Q 210.98 211.44 213.55 206.60
  C 215.73 202.49 215.94 197.75 215.50 193.14
  Q 214.62 184.01 214.09 174.69
  C 214.00 173.08 214.79 171.88 216.22 171.20
  C 223.61 167.71 224.39 162.19 225.99 154.00
  Q 226.78 149.91 227.62 145.53
  Z"
/>
<path fill="#f14f31" d="
  M 157.48 167.61
  Q 155.90 171.93 151.04 172.33
  Q 145.09 172.82 137.57 172.10
  C 132.51 171.61 128.79 169.94 127.00 164.63
  C 126.35 162.72 125.78 160.77 127.59 159.22
  Q 129.39 157.68 131.53 157.54
  Q 140.06 157.01 150.63 157.92
  C 152.77 158.11 154.92 158.01 156.67 159.31
  C 158.77 160.86 158.22 165.60 157.48 167.61
  Z"
/>
<path fill="#5b257c" d="
  M 11.80 188.84
  Q 22.24 202.30 35.27 211.41
  Q 46.05 218.95 59.34 225.20
  Q 75.19 231.03 91.94 234.83
  Q 98.73 237.31 105.49 239.84
  Q 110.55 241.73 114.46 242.35
  Q 119.25 243.11 124.17 244.09
  Q 126.65 244.58 128.56 246.02
  A 2.09 2.08 -59.5 0 1 129.21 248.55
  Q 127.74 251.83 123.95 253.38
  Q 113.82 257.53 104.33 258.64
  C 85.39 260.84 66.06 259.27 50.34 248.25
  Q 32.90 236.02 22.18 218.92
  C 18.21 212.60 15.55 205.80 13.31 198.76
  Q 11.90 194.33 11.80 188.84
  Z"
/>
<path fill="#f46931" d="
  M 184.94 201.56
  C 183.82 199.36 185.94 196.69 187.22 194.97
  Q 190.07 191.16 194.50 191.13
  C 200.57 191.10 202.34 196.51 200.87 201.56
  Q 199.64 205.80 195.76 205.89
  C 192.40 205.97 186.67 204.97 184.94 201.56
  Z"
/>
<path fill="#8c2583" d="
  M 164.11 241.86
  Q 162.96 245.43 159.80 247.58
  Q 147.97 255.63 132.43 263.41
  Q 131.32 263.96 129.74 266.28
  Q 129.50 266.63 129.09 266.75
  L 126.94 267.39
  Q 126.43 267.54 126.61 268.04
  Q 126.69 268.26 126.90 268.33
  Q 127.35 268.49 127.25 268.96
  Q 126.44 272.87 127.07 276.29
  Q 127.48 278.50 128.07 280.95
  Q 128.39 282.28 128.91 283.42
  Q 129.52 284.76 130.01 286.17
  Q 130.17 286.61 130.58 286.83
  Q 131.76 287.47 131.57 288.67
  C 129.29 288.58 127.10 288.40 124.82 288.51
  Q 103.36 289.49 84.49 285.96
  Q 80.86 285.29 77.09 282.65
  Q 78.58 279.64 76.37 277.20
  A 1.29 1.26 -18.5 0 0 75.48 276.77
  Q 74.68 276.72 74.03 276.32
  C 73.15 275.79 72.04 276.19 71.87 277.26
  Q 71.86 277.35 71.77 277.38
  Q 71.63 277.43 71.47 277.41
  Q 71.26 277.38 71.25 277.17
  Q 71.25 276.34 70.57 275.96
  Q 70.13 275.71 70.13 275.21
  L 70.13 273.01
  Q 70.13 272.43 70.70 272.49
  Q 72.94 272.73 74.32 274.52
  A 1.25 1.23 72.6 0 0 75.24 275.01
  Q 77.29 275.14 79.39 275.67
  Q 81.52 276.20 83.66 276.16
  Q 86.74 276.09 89.73 276.14
  C 90.97 276.16 91.86 275.47 93.08 275.40
  Q 96.31 275.20 99.39 275.62
  C 100.86 275.82 101.64 275.15 103.02 275.14
  Q 104.42 275.13 105.86 274.75
  Q 108.71 274.01 111.68 273.61
  Q 112.70 273.47 113.53 272.69
  Q 113.94 272.31 114.50 272.31
  Q 117.25 272.29 119.21 270.51
  Q 119.51 270.23 119.13 270.37
  Q 118.28 270.69 117.65 271.24
  Q 117.28 271.57 116.78 271.58
  Q 114.54 271.65 112.19 272.68
  Q 111.28 273.08 110.29 273.22
  Q 109.25 273.36 108.21 273.57
  Q 104.74 274.27 100.18 274.33
  Q 99.49 274.34 100.00 273.88
  Q 100.20 273.69 100.49 273.67
  Q 102.99 273.50 105.74 272.94
  Q 109.83 272.11 113.62 270.99
  Q 117.01 269.94 119.37 268.36
  Q 120.12 267.86 119.23 267.94
  Q 117.83 268.07 116.63 268.68
  Q 115.19 269.41 113.86 269.65
  Q 108.52 270.59 103.39 269.78
  L 111.18 267.81
  Q 115.18 270.29 117.13 266.84
  Q 117.37 266.43 117.84 266.37
  Q 118.67 266.27 119.04 265.51
  Q 128.98 262.06 138.39 257.15
  Q 151.48 250.31 164.11 241.86
  Z"
/>
<path fill="#6a164b" d="
  M 119.04 265.51
  Q 118.67 266.27 117.84 266.37
  Q 117.37 266.43 117.13 266.84
  Q 115.18 270.29 111.18 267.81
  L 119.04 265.51
  Z"
/>
<path fill="#6a164b" d="
  M 113.62 270.99
  L 105.84 271.84
  Q 105.45 271.88 105.11 272.08
  Q 104.79 272.28 104.25 272.33
  Q 99.32 272.70 94.01 273.49
  Q 92.24 273.75 90.50 273.58
  Q 88.73 273.42 86.94 273.40
  Q 85.79 273.39 84.66 272.77
  Q 83.56 272.17 82.48 271.62
  L 103.39 269.78
  Q 108.52 270.59 113.86 269.65
  Q 115.19 269.41 116.63 268.68
  Q 117.83 268.07 119.23 267.94
  Q 120.12 267.86 119.37 268.36
  Q 117.01 269.94 113.62 270.99
  Z"
/>
<path fill="#a02f89" d="
  M 77.09 282.65
  C 73.91 280.76 68.50 276.44 69.01 272.35
  A 1.48 1.48 0.0 0 1 70.54 271.06
  L 82.48 271.62
  Q 83.56 272.17 84.66 272.77
  Q 85.79 273.39 86.94 273.40
  Q 88.73 273.42 90.50 273.58
  Q 92.24 273.75 94.01 273.49
  Q 99.32 272.70 104.25 272.33
  Q 104.79 272.28 105.11 272.08
  Q 105.45 271.88 105.84 271.84
  L 113.62 270.99
  Q 109.83 272.11 105.74 272.94
  Q 102.99 273.50 100.49 273.67
  Q 100.20 273.69 100.00 273.88
  Q 99.49 274.34 100.18 274.33
  Q 104.74 274.27 108.21 273.57
  Q 109.25 273.36 110.29 273.22
  Q 111.28 273.08 112.19 272.68
  Q 114.54 271.65 116.78 271.58
  Q 117.28 271.57 117.65 271.24
  Q 118.28 270.69 119.13 270.37
  Q 119.51 270.23 119.21 270.51
  Q 117.25 272.29 114.50 272.31
  Q 113.94 272.31 113.53 272.69
  Q 112.70 273.47 111.68 273.61
  Q 108.71 274.01 105.86 274.75
  Q 104.42 275.13 103.02 275.14
  C 101.64 275.15 100.86 275.82 99.39 275.62
  Q 96.31 275.20 93.08 275.40
  C 91.86 275.47 90.97 276.16 89.73 276.14
  Q 86.74 276.09 83.66 276.16
  Q 81.52 276.20 79.39 275.67
  Q 77.29 275.14 75.24 275.01
  A 1.25 1.23 72.6 0 1 74.32 274.52
  Q 72.94 272.73 70.70 272.49
  Q 70.13 272.43 70.13 273.01
  L 70.13 275.21
  Q 70.13 275.71 70.57 275.96
  Q 71.25 276.34 71.25 277.17
  Q 71.26 277.38 71.47 277.41
  Q 71.63 277.43 71.77 277.38
  Q 71.86 277.35 71.87 277.26
  C 72.04 276.19 73.15 275.79 74.03 276.32
  Q 74.68 276.72 75.48 276.77
  A 1.29 1.26 -18.5 0 1 76.37 277.20
  Q 78.58 279.64 77.09 282.65
  Z"
/>
</svg>
